<svg width="18" height="18" viewBox="0 0 18 18" fill="none" xmlns="http://www.w3.org/2000/svg">
<path d="M0.5 16.6753H10.1429M8.85714 16.6753V13.461H1.78571V16.6753M9.869 0.87644L5.25971 5.48573C5.01868 5.72683 4.88327 6.0538 4.88327 6.39473C4.88327 6.73565 5.01868 7.06262 5.25971 7.30373L7.29629 9.3403C7.53739 9.58133 7.86436 9.71674 8.20529 9.71674C8.54621 9.71674 8.87318 9.58133 9.11429 9.3403L13.7236 4.73101C13.9646 4.4899 14.1 4.16294 14.1 3.82201C14.1 3.48109 13.9646 3.15412 13.7236 2.91301L11.6857 0.87644C11.4446 0.635405 11.1176 0.5 10.7767 0.5C10.4358 0.5 10.1088 0.635405 9.86771 0.87644M11.4286 7.03244L17.2143 12.8182" stroke="#223D9C" stroke-linecap="round" stroke-linejoin="round"/>
</svg>
