<svg width="17" height="17" viewBox="0 0 17 17" fill="none" xmlns="http://www.w3.org/2000/svg">
<path d="M3.015 1.6102e-06H4.75833L3.01 5H0L2.27 0.460002C2.33927 0.321757 2.44565 0.205513 2.57722 0.124274C2.70879 0.0430356 2.86037 6.79909e-06 3.015 1.6102e-06ZM0.06 6.66667L5.08333 14.4783L2.965 6.66667H0.06ZM4.69167 6.66667L7.24167 16.075C7.28686 16.2456 7.38721 16.3965 7.52708 16.5042C7.66695 16.6118 7.8385 16.6702 8.015 16.6702C8.1915 16.6702 8.36305 16.6118 8.50292 16.5042C8.6428 16.3965 8.74314 16.2456 8.78833 16.075L11.345 6.66667H4.69167ZM13.0717 6.66667L10.9483 14.475L15.97 6.66667H13.0717ZM16.03 5H13.025L11.275 1.6102e-06H13.015C13.1699 -0.00030287 13.3218 0.0425799 13.4537 0.123836C13.5856 0.205091 13.6923 0.321503 13.7617 0.460002L16.03 5ZM11.26 5H4.77667L6.52333 1.6102e-06H9.50667L11.26 5Z" fill="white"/>
</svg>
