<svg width="15" height="15" viewBox="0 0 15 15" fill="none" xmlns="http://www.w3.org/2000/svg">
<path fill-rule="evenodd" clip-rule="evenodd" d="M7.89298 1.7375C8.09866 1.81042 8.27968 1.93458 8.42057 2.09542L11.7609 1.26292C11.82 1.24787 11.8816 1.24589 11.9416 1.25712C12.0015 1.26835 12.0583 1.29251 12.1079 1.32792C12.1552 1.36153 12.194 1.40347 12.2241 1.45375L14.1865 4.58333H15V4.58458C15 4.87208 14.9657 5.15083 14.9013 5.41667C14.5531 6.85417 13.3253 7.91667 11.8645 7.91667C10.4038 7.91667 9.176 6.85417 8.82776 5.41667C8.76186 5.14377 8.72874 4.86403 8.7291 4.58333H9.34532L10.8942 2.33792L8.72868 2.8775L8.7291 2.91667C8.72923 3.17527 8.64889 3.42755 8.49914 3.63874C8.34939 3.84993 8.13761 4.00963 7.89298 4.09583V13.3333H9.14716V14.1667H11.6555V15H3.29432V14.1667H5.80268V13.3333H7.05686V4.09583C6.78331 3.99934 6.55179 3.8113 6.40176 3.56375L3.95778 4.21333L5.88002 7.17417H6.2709V7.17542C6.27117 7.45569 6.23805 7.73501 6.17224 8.0075C5.824 9.445 4.59616 10.5075 3.13545 10.5075C1.67475 10.5075 0.446909 9.445 0.0986651 8.0075C0.0327608 7.7346 -0.000359039 7.45486 2.93511e-06 7.17417H0.50502L2.95276 3.71792C3.00927 3.63807 3.09213 3.58055 3.18688 3.55542L6.23244 2.74625C6.26378 2.51896 6.35728 2.30465 6.50269 2.12679C6.64811 1.94894 6.83983 1.8144 7.05686 1.73792V0H7.89298V1.7375ZM13.2007 4.58333L11.8478 2.42625L10.36 4.58333H13.2007ZM4.8842 7.17417L3.27927 4.70208L1.52843 7.17417H4.8842ZM14.0343 5.41667C13.7124 6.41042 12.8328 7.08333 11.8645 7.08333C10.8963 7.08333 10.0167 6.41042 9.69482 5.41667H14.0343ZM5.30519 8.0075C4.98328 9.00125 4.10368 9.67417 3.13545 9.67417C2.16723 9.67417 1.28763 9.00125 0.965722 8.0075H5.30519ZM7.47492 3.33333C7.58579 3.33333 7.69213 3.28943 7.77053 3.21129C7.84893 3.13315 7.89298 3.02717 7.89298 2.91667C7.89298 2.80616 7.84893 2.70018 7.77053 2.62204C7.69213 2.5439 7.58579 2.5 7.47492 2.5C7.36404 2.5 7.25771 2.5439 7.1793 2.62204C7.1009 2.70018 7.05686 2.80616 7.05686 2.91667C7.05686 3.02717 7.1009 3.13315 7.1793 3.21129C7.25771 3.28943 7.36404 3.33333 7.47492 3.33333Z" fill="#223D9C"/>
</svg>
