<svg width="15" height="14" viewBox="0 0 15 14" fill="none" xmlns="http://www.w3.org/2000/svg">
<path d="M11.3475 6.63158L12.2925 5.70316C12.6225 5.37895 13.0425 5.20211 13.5 5.15789V4.42105L9 0H1.5C0.6675 0 0 0.655789 0 1.47368V11.7895C0 12.1803 0.158035 12.5552 0.43934 12.8315C0.720644 13.1079 1.10218 13.2632 1.5 13.2632H6V11.8853L6.0975 11.7895H1.5V1.47368H6.75V6.63158H11.3475ZM8.25 1.10526L12.375 5.15789H8.25V1.10526ZM12.0975 7.98L13.6275 9.48316L9.03 14H7.5V12.4968L12.0975 7.98ZM14.8875 8.24526L14.1525 8.96737L12.6225 7.46421L13.3575 6.74211C13.5 6.59474 13.7475 6.59474 13.8975 6.74211L14.8875 7.71474C15.0375 7.86211 15.0375 8.10526 14.8875 8.24526Z" fill="#223D9C"/>
</svg>
