<svg width="13" height="13" viewBox="0 0 13 13" fill="none" xmlns="http://www.w3.org/2000/svg">
<path d="M5.61523 0.891051C5.72736 0.76787 5.86397 0.669459 6.01633 0.602121C6.16869 0.534783 6.33343 0.5 6.5 0.5C6.66657 0.5 6.83131 0.534783 6.98367 0.602121C7.13603 0.669459 7.27264 0.76787 7.38477 0.891051L7.99496 1.56106C8.11344 1.69113 8.25914 1.79346 8.42169 1.86077C8.58424 1.92809 8.75963 1.95873 8.93537 1.95051L9.84048 1.90863C10.0068 1.90079 10.1729 1.92776 10.3282 1.9878C10.4835 2.04785 10.6246 2.13965 10.7424 2.25733C10.8602 2.37501 10.9521 2.51599 11.0123 2.67124C11.0725 2.82649 11.0996 2.99259 11.092 3.15892L11.0495 4.06463C11.0413 4.24037 11.0719 4.41577 11.1392 4.57831C11.2065 4.74086 11.3089 4.88656 11.4389 5.00504L12.1089 5.61523C12.2321 5.72736 12.3305 5.86397 12.3979 6.01633C12.4652 6.16869 12.5 6.33343 12.5 6.5C12.5 6.66657 12.4652 6.83131 12.3979 6.98367C12.3305 7.13603 12.2321 7.27264 12.1089 7.38477L11.4389 7.99496C11.3089 8.11344 11.2065 8.25914 11.1392 8.42169C11.0719 8.58424 11.0413 8.75963 11.0495 8.93537L11.0914 9.84048C11.0992 10.0068 11.0722 10.1729 11.0122 10.3282C10.9522 10.4835 10.8604 10.6246 10.7427 10.7424C10.625 10.8602 10.484 10.9521 10.3288 11.0123C10.1735 11.0725 10.0074 11.0996 9.84108 11.092L8.93537 11.0495C8.75963 11.0413 8.58424 11.0719 8.42169 11.1392C8.25914 11.2065 8.11344 11.3089 7.99496 11.4389L7.38477 12.1089C7.27264 12.2321 7.13603 12.3305 6.98367 12.3979C6.83131 12.4652 6.66657 12.5 6.5 12.5C6.33343 12.5 6.16869 12.4652 6.01633 12.3979C5.86397 12.3305 5.72736 12.2321 5.61523 12.1089L5.00504 11.4389C4.88656 11.3089 4.74086 11.2065 4.57831 11.1392C4.41577 11.0719 4.24037 11.0413 4.06463 11.0495L3.15952 11.0914C2.99319 11.0992 2.82706 11.0722 2.67176 11.0122C2.51645 10.9522 2.37539 10.8604 2.2576 10.7427C2.1398 10.625 2.04787 10.484 1.98767 10.3288C1.92748 10.1735 1.90035 10.0074 1.90803 9.84108L1.95051 8.93537C1.95873 8.75963 1.92809 8.58424 1.86077 8.42169C1.79346 8.25914 1.69113 8.11344 1.56106 7.99496L0.891051 7.38477C0.76787 7.27264 0.669459 7.13603 0.602121 6.98367C0.534783 6.83131 0.5 6.66657 0.5 6.5C0.5 6.33343 0.534783 6.16869 0.602121 6.01633C0.669459 5.86397 0.76787 5.72736 0.891051 5.61523L1.56106 5.00504C1.69113 4.88656 1.79346 4.74086 1.86077 4.57831C1.92809 4.41577 1.95873 4.24037 1.95051 4.06463L1.90863 3.15952C1.90079 2.99319 1.92776 2.82706 1.9878 2.67176C2.04785 2.51645 2.13965 2.37539 2.25733 2.2576C2.37501 2.1398 2.51599 2.04787 2.67124 1.98767C2.82649 1.92748 2.99259 1.90035 3.15892 1.90803L4.06463 1.95051C4.24037 1.95873 4.41577 1.92809 4.57831 1.86077C4.74086 1.79346 4.88656 1.69113 5.00504 1.56106L5.61523 0.891051Z" stroke="#223D9C"/>
<path d="M4.70508 6.50001L5.90153 7.69645L8.29442 5.30356" stroke="#223D9C" stroke-linecap="round" stroke-linejoin="round"/>
</svg>
